<?xml version="1.0" encoding="UTF-8" standalone="no"?>
<!DOCTYPE svg PUBLIC "-//W3C//DTD SVG 1.1//EN" "http://www.w3.org/Graphics/SVG/1.1/DTD/svg11.dtd">
<svg width="100%" height="100%" viewBox="0 0 380 364" version="1.1" xmlns="http://www.w3.org/2000/svg" xmlns:xlink="http://www.w3.org/1999/xlink" xml:space="preserve" xmlns:serif="http://www.serif.com/" style="fill-rule:evenodd;clip-rule:evenodd;stroke-linecap:round;stroke-linejoin:round;stroke-miterlimit:1.5;">
    <g transform="matrix(1,0,0,1,-902.565,-884.941)">
        <g transform="matrix(1,0,0,1,24.8711,40.4591)">
            <g>
                <g transform="matrix(1,0,0,1,877.323,1051.07)">
                    <text x="0px" y="0px" style="font-family:'ArialRoundedMTBold', 'Arial Rounded MT Bold', sans-serif;font-size:42.252px;">T</text>
                </g>
                <g transform="matrix(1,0,0,1,903.173,1051.07)">
                    <text x="0px" y="0px" style="font-family:'ArialRoundedMTBold', 'Arial Rounded MT Bold', sans-serif;font-size:42.252px;">he</text>
                </g>
            </g>
        </g>
        <g transform="matrix(1,0,0,1,900.897,1173.79)">
            <text x="0px" y="0px" style="font-family:'ArialRoundedMTBold', 'Arial Rounded MT Bold', sans-serif;font-size:90.294px;">Shipping</text>
        </g>
        <g transform="matrix(1,0,0,1,-339.761,-22.3171)">
            <g>
                <g transform="matrix(1,0,0,1,1487.24,1260.74)">
                    <text x="0px" y="0px" style="font-family:'ArialRoundedMTBold', 'Arial Rounded MT Bold', sans-serif;font-size:48px;">de</text>
                </g>
                <g transform="matrix(1,0,0,1,1545.12,1260.74)">
                    <text x="0px" y="0px" style="font-family:'ArialRoundedMTBold', 'Arial Rounded MT Bold', sans-serif;font-size:48px;">pot</text>
                </g>
            </g>
        </g>
    </g>
    <g transform="matrix(1,0,0,1,-237.632,-434.322)">
        <g transform="matrix(1,0,0,1,-651.67,-191.116)">
            <path d="M1090.51,845.086C1090.61,845.088 1090.72,845.062 1090.81,845.011C1096.27,842.028 1176.48,798.055 1190.29,790.487C1191.53,789.803 1192.32,788.507 1192.36,787.084C1192.71,773.713 1194.5,705.811 1195.04,685.405C1195.07,684.089 1194.45,682.84 1193.39,682.066C1192.33,681.291 1190.95,681.089 1189.71,681.527C1181.11,684.554 1164.77,690.309 1158.31,692.585C1156.68,693.158 1155.6,694.71 1155.64,696.436C1155.76,702.767 1156.06,717.772 1156.17,723.767C1156.2,725.317 1155.34,726.745 1153.95,727.431C1151.13,728.825 1146.23,731.247 1142.36,733.155C1141.13,733.763 1139.68,733.698 1138.51,732.982C1137.34,732.267 1136.61,731 1136.59,729.628C1136.49,722.644 1136.33,711.51 1136.23,704.801C1136.21,703.501 1135.56,702.291 1134.48,701.557C1133.41,700.824 1132.05,700.658 1130.83,701.113C1120.42,704.998 1097.7,713.482 1089.94,716.382C1088.34,716.978 1087.3,718.518 1087.34,720.221C1087.76,738.742 1090.14,841.571 1090.51,845.086Z" style="fill:rgb(188,128,68);"/>
        </g>
        <g transform="matrix(1,0,0,1,-651.67,-191.116)">
            <g id="Layer1">
                <path d="M1150.04,683.445C1151.17,683.864 1152.42,683.858 1153.55,683.427C1159.37,681.211 1178.05,674.088 1185.72,671.167C1186.2,670.981 1186.52,670.506 1186.5,669.984C1186.49,669.463 1186.14,669.01 1185.64,668.858C1165.46,662.692 1061.88,631.05 1045.65,626.092C1044.14,625.63 1042.49,626.046 1041.38,627.172C1040.13,628.432 1039.21,629.863 1038.69,631.677C1037.96,634.218 1039.34,636.885 1041.83,637.765C1050.47,640.819 1071.74,648.334 1071.74,648.334C1071.74,648.334 1060.61,650.479 1061.46,650.68C1062.24,650.864 1137.51,678.795 1150.04,683.445Z" style="fill:rgb(247,191,142);"/>
            </g>
        </g>
        <g transform="matrix(1,0,0,1,-651.67,-191.116)">
            <g id="Layer2">
                <path d="M1082.74,707.825C1084.04,708.522 1085.58,708.606 1086.95,708.056C1094.01,705.223 1116.43,696.224 1125.52,692.578C1126.16,692.322 1126.58,691.705 1126.58,691.017C1126.58,690.33 1126.16,689.711 1125.52,689.453C1108.59,682.595 1041.88,655.584 1041.88,655.584L1029.89,659.147L986.56,636.783C979.11,635.62 975.511,640.181 975.949,650.743C975.949,650.743 1067.75,699.816 1082.74,707.825Z" style="fill:rgb(244,194,135);"/>
            </g>
        </g>
        <g transform="matrix(1,0,0,1,-651.67,-191.116)">
            <g id="Layer3">
                <g>
                    <path d="M1083.17,842.463C1083.5,842.734 1083.96,842.79 1084.34,842.605C1084.72,842.42 1084.96,842.028 1084.95,841.603C1084.61,826.083 1082.68,739.369 1082.3,722.247C1082.26,720.434 1081.24,718.784 1079.63,717.937C1061.89,708.562 958.821,654.089 943.271,645.871C941.865,645.128 940.189,645.098 938.757,645.79C935.182,647.53 932.343,650.467 930.849,656.14C930.231,658.361 931.221,660.716 933.241,661.827C947.487,669.702 1005.48,701.621 1005.48,701.621L1005.78,716.318C1005.78,716.318 978.723,699.912 971.422,695.487C970.144,694.712 968.586,694.549 967.175,695.043C962.936,696.533 960.006,699.25 958.621,704.334C958.006,706.448 958.857,708.714 960.712,709.899C971.052,716.557 1006.93,739.498 1006.93,739.498L1006.71,758.06C1006.71,758.06 960.229,720.951 948.662,711.717C946.778,710.213 944.089,710.267 942.267,711.846C940.722,713.182 939.43,714.949 938.314,717.079C937.194,719.172 937.701,721.763 939.528,723.279C958.742,739.229 1067.68,829.614 1083.17,842.463Z" style="fill:rgb(209,167,127);stroke:rgb(209,167,127);stroke-width:1px;"/>
                </g>
            </g>
        </g>
    </g>
</svg>
